<?xml version="1.0" encoding="UTF-8" standalone="no"?>
<!-- Created with Inkscape (http://www.inkscape.org/) -->

<svg
   xmlns:dc="http://purl.org/dc/elements/1.1/"
   xmlns:cc="http://creativecommons.org/ns#"
   xmlns:rdf="http://www.w3.org/1999/02/22-rdf-syntax-ns#"
   xmlns:svg="http://www.w3.org/2000/svg"
   xmlns="http://www.w3.org/2000/svg"
   xmlns:sodipodi="http://sodipodi.sourceforge.net/DTD/sodipodi-0.dtd"
   xmlns:inkscape="http://www.inkscape.org/namespaces/inkscape"
   width="101.0071mm"
   height="99.904961mm"
   viewBox="0 0 357.89916 353.99395"
   id="svg4209"
   version="1.1"
   inkscape:version="0.91 r13725"
   sodipodi:docname="logo.svg">
  <defs
     id="defs4211" />
  <sodipodi:namedview
     id="base"
     pagecolor="#ffffff"
     bordercolor="#666666"
     borderopacity="1.0"
     inkscape:pageopacity="0.0"
     inkscape:pageshadow="2"
     inkscape:zoom="0.98994949"
     inkscape:cx="47.164804"
     inkscape:cy="369.24423"
     inkscape:document-units="px"
     inkscape:current-layer="layer1"
     showgrid="false"
     showguides="true"
     inkscape:guide-bbox="true"
     inkscape:window-width="1918"
     inkscape:window-height="1054"
     inkscape:window-x="0"
     inkscape:window-y="24"
     inkscape:window-maximized="1"
     fit-margin-top="0"
     fit-margin-left="0"
     fit-margin-right="0"
     fit-margin-bottom="0">
    <sodipodi:guide
       position="24.24366,740.4418"
       orientation="0,1"
       id="guide4845" />
    <sodipodi:guide
       position="-83.842659,626.29457"
       orientation="1,0"
       id="guide4899" />
  </sodipodi:namedview>
  <metadata
     id="metadata4214">
    <rdf:RDF>
      <cc:Work
         rdf:about="">
        <dc:format>image/svg+xml</dc:format>
        <dc:type
           rdf:resource="http://purl.org/dc/dcmitype/StillImage" />
        <dc:title></dc:title>
      </cc:Work>
    </rdf:RDF>
  </metadata>
  <g
     inkscape:label="Layer 1"
     inkscape:groupmode="layer"
     id="layer1"
     transform="translate(-78.915714,-31.140447)">
    <g
       id="g4870"
       transform="translate(90.816951,399.13209)"
       style="fill:#000000">
      <path
         id="path4839"
         d="m 48.274006,-54.21018 0,-3.98415 9.995339,0 9.99534,0 0,-16.19822 0,-16.19819 -0.73392,-0.0946 c -2.5955,-0.33444 -6.81185,-1.61206 -9.8206,-2.97583 -7.060389,-3.20023 -13.386429,-8.58811 -18.510459,-15.76534 -0.54786,-0.76739 -0.96642,-1.4726 -0.93014,-1.56716 0.0613,-0.15968 10.1529,-15.98794 11.23686,-17.62452 0.26813,-0.40482 0.46224,-0.7553 0.43136,-0.77886 -0.0309,-0.0236 -1.1518,-0.43153 -2.49094,-0.90659 -1.33914,-0.47508 -2.46442,-0.89339 -2.50063,-0.9296 -0.06,-0.06 0.91355,-1.82685 3.89203,-7.06364 l 1.07338,-1.88723 34.199829,-0.0352 c 32.551755,-0.0335 34.199835,-0.0234 34.199835,0.21054 0,0.58067 -0.44792,4.04883 -0.7808,6.04556 -1.56413,9.38228 -5.52275,18.77205 -10.91706,25.89505 -6.10126,8.05651 -13.813015,13.64153 -22.412115,16.23135 -1.69169,0.50949 -4.87764,1.21004 -5.503,1.21004 l -0.36839,0 0,16.21622 0,16.21622 9.99534,0 9.99534,0 0,3.98415 0,3.98416 -25.0233,0 -25.023299,0 0,-3.98416 z"
         style="fill:#000000"
         inkscape:connector-curvature="0" />
      <path
         id="path4837"
         d="m 34.357256,-117.82589 c -2.526891,-5.32851 -4.386851,-11.15254 -5.304401,-16.60952 -0.37694,-2.24182 -0.76154,-5.533 -0.66768,-5.71373 0.0299,-0.0577 3.58029,-0.10484 7.889671,-0.10484 6.78419,0 7.8248,0.0272 7.7575,0.20253 -0.0427,0.11141 -1.51841,2.74806 -3.27925,5.85926 l -3.20152,5.6567 2.41879,0.86814 2.4188,0.86813 -0.45972,0.7167 c -0.25284,0.39418 -1.76737,2.7612 -3.36561,5.26004 -1.59824,2.49883 -2.99068,4.63364 -3.09431,4.74402 -0.16034,0.17076 -0.32614,-0.0897 -1.11227,-1.74743 z"
         style="fill:#000000"
         inkscape:connector-curvature="0" />
    </g>
    <g
       id="g4874"
       transform="translate(277.47048,576.19482)"
       style="fill:#000000">
      <path
         id="path4825"
         d="m 40.696956,-223.60673 c -0.0521,-3.12182 -0.0696,-3.29442 -0.443,-4.3686 -1.11355,-3.20375 -3.08252,-6.31277 -9.255211,-14.61407 -3.73062,-5.01709 -5.21945,-7.22343 -6.12465,-9.0763 l -0.71472,-1.46297 0,-21.6032 0,-21.6032 0.39443,-0.80349 c 0.51695,-1.05307 1.56456,-2.18434 2.48846,-2.6872 0.58021,-0.31578 0.97305,-0.41676 1.80985,-0.4652 0.94191,-0.0545 1.17028,-0.0163 1.92368,0.32178 0.9619,0.43167 2.04355,1.47245 2.538441,2.44252 0.8137,1.59498 0.76043,0.70212 0.83847,14.05273 l 0.0719,12.30196 0.46216,1.32805 c 0.94313,2.71022 2.01731,4.3365 9.41835,14.25909 2.79423,3.74622 3.0737,3.99333 4.39263,3.88395 0.53925,-0.0447 0.85602,-0.15582 1.10133,-0.38628 0.46773,-0.43941 0.69418,-1.1612 0.52057,-1.65923 -0.0748,-0.21445 -1.90081,-3.03938 -4.05788,-6.27762 -4.27503,-6.41772 -4.44388,-6.74342 -4.59846,-8.86956 -0.2439,-3.35463 1.28284,-5.41538 4.0148,-5.41906 1.58515,-0.002 2.96531,0.45131 4.17338,1.37113 0.49338,0.37566 6.320249,7.04175 8.795849,10.06267 5.95228,7.26345 9.07314,12.40485 10.18114,16.77274 l 0.33518,1.32132 0,12.21413 0,12.21414 -14.10621,0 -14.106209,0 -0.0543,-3.25023 z"
         style="fill:#000000"
         inkscape:connector-curvature="0" />
      <path
         id="path4823"
         d="m 79.028895,-232.15086 c 0,-9.74703 0.0357,-11.99884 0.20541,-12.97229 0.80282,-4.60368 4.28207,-10.43278 11.12561,-18.63969 2.5792,-3.09302 7.39894,-8.61306 7.86461,-9.00732 2.022575,-1.7124 5.196195,-2.06916 6.893065,-0.77489 0.65736,0.50139 1.30935,1.91265 1.42648,3.08769 0.13362,1.34035 -0.049,2.9947 -0.43493,3.93949 -0.17925,0.43885 -2.07571,3.44003 -4.21435,6.66929 -2.771565,4.18493 -3.907965,6.01543 -3.956375,6.37287 -0.14163,1.0459 0.63648,1.80514 1.85004,1.80514 0.759005,0 1.238255,-0.2251 1.834825,-0.8618 0.48426,-0.51682 6.62588,-8.77442 8.4047,-11.30037 1.50942,-2.14341 2.60425,-4.02027 3.10973,-5.33103 0.82482,-2.13884 0.83977,-2.40263 0.84159,-14.8527 0.001,-9.02245 0.0399,-11.48288 0.18865,-12.03901 0.43723,-1.63435 1.59014,-3.17018 2.90074,-3.86417 0.50931,-0.26969 0.82723,-0.32529 1.87168,-0.32728 1.06809,-0.002 1.3622,0.0504 1.94694,0.34709 0.84238,0.42742 1.85946,1.3943 2.35331,2.23715 0.83967,1.43306 0.80226,0.36073 0.80226,22.99984 0,23.2783 0.0989,21.18632 -1.11128,23.50029 -0.93824,1.79395 -2.18547,3.60784 -6.28322,9.13784 -5.54759,7.4866 -7.70559,10.89636 -8.79207,13.89194 -0.34359,0.94732 -0.36401,1.16264 -0.4161,4.38625 l -0.0548,3.39003 -14.178275,0 -14.17827,0 0,-11.79436 z"
         style="fill:#000000"
         inkscape:connector-curvature="0" />
      <path
         id="path4821"
         d="m 62.498145,-276.78435 -8.49255,-6.37424 0,-9.99486 0,-9.99486 0.45434,0.34296 c 0.24988,0.18863 4.08725,3.06623 8.52749,6.39466 l 8.07316,6.05169 0,9.97795 c 0,5.48787 -0.0157,9.97637 -0.035,9.97445 -0.0192,-0.002 -3.85659,-2.87191 -8.52749,-6.37775 z"
         style="fill:#000000"
         inkscape:connector-curvature="0" />
      <path
         id="path4819"
         d="m 77.071765,-280.39713 0,-9.99484 8.38649,-6.29168 c 4.61257,-3.46042 8.41849,-6.29168 8.4576,-6.29168 0.0391,0 0.0683,4.48218 0.065,9.96039 l -0.006,9.96039 -8.45146,6.32614 -8.45146,6.32613 0,-9.99485 z"
         style="fill:#000000"
         inkscape:connector-curvature="0" />
      <path
         id="path4817"
         d="m 64.074745,-301.84867 c -5.4184,-4.06668 -9.86621,-7.44642 -9.88402,-7.51054 -0.0252,-0.0908 19.05914,-14.49834 19.7222,-14.88904 0.20276,-0.11948 20.14877,14.82758 19.98488,14.97619 -0.41487,0.37622 -19.77986,14.82357 -19.86554,14.82079 -0.0582,-0.002 -4.53912,-3.33072 -9.95752,-7.3974 z"
         style="fill:#000000"
         inkscape:connector-curvature="0" />
    </g>
    <g
       id="g4862"
       transform="translate(-85.350836,387.26271)"
       style="fill:#000000">
      <path
         id="path4811"
         d="m 199.53216,-223.43199 0,-5.03262 49.9767,0 49.9767,0 0,5.03262 0,5.03262 -49.9767,0 -49.9767,0 0,-5.03262 z"
         style="fill:#000000"
         inkscape:connector-curvature="0" />
      <path
         id="path4809"
         d="m 216.44735,-265.99956 0,-32.50233 -3.42498,0 c -1.88374,0 -3.42497,-0.0265 -3.42497,-0.0589 0,-0.0726 14.67989,-24.57206 14.81481,-24.72462 0.0742,-0.0839 14.72473,24.10274 14.93821,24.66153 0.0258,0.0674 -1.49142,0.12197 -3.39003,0.12197 l -3.43662,0 0,32.50233 0,32.50233 -8.03821,0 -8.03821,0 0,-32.50233 z"
         style="fill:#000000"
         inkscape:connector-curvature="0" />
      <path
         id="path4765"
         d="m 266.49395,-265.99956 0,-32.50233 -3.42498,0 c -1.88374,0 -3.42498,-0.0369 -3.42498,-0.082 0,-0.13032 14.84001,-24.82653 14.88831,-24.77658 0.0239,0.0247 3.38354,5.61231 7.46583,12.41683 l 7.42238,12.37185 -3.46001,0.0699 -3.46003,0.0699 -0.0352,32.46738 -0.0352,32.46738 -7.96802,0 -7.96802,0 0,-32.50233 z"
         style="fill:#000000"
         inkscape:connector-curvature="0" />
    </g>
    <path
       style="fill:none;stroke:#1a1a1a;stroke-width:10;stroke-linejoin:miter;stroke-miterlimit:4;stroke-dasharray:none"
       d="m 83.915714,116.38276 0,-80.242313 80.242306,0 80.24232,0 0,80.242313 0,80.2423 -80.24232,0 -80.242306,0 0,-80.2423 z"
       id="path4829"
       inkscape:connector-curvature="0" />
    <path
       style="fill:none;stroke:#1a1a1a;stroke-width:10;stroke-linejoin:miter;stroke-miterlimit:4;stroke-dasharray:none"
       d="m 271.33026,116.38276 0,-80.242313 80.24232,0 80.24232,0 0,80.242313 0,80.2423 -80.24232,0 -80.24232,0 0,-80.2423 z"
       id="path4829-3"
       inkscape:connector-curvature="0" />
    <path
       style="fill:none;stroke:#1a1a1a;stroke-width:10;stroke-linejoin:miter;stroke-miterlimit:4;stroke-dasharray:none"
       d="m 83.915714,303.89209 0,-80.24231 80.242306,0 80.24232,0 0,80.24231 0,80.24231 -80.24232,0 -80.242306,0 0,-80.24231 z"
       id="path4829-6"
       inkscape:connector-curvature="0" />
    <path
       style="fill:none;stroke:#1a1a1a;stroke-width:10;stroke-linejoin:miter;stroke-miterlimit:4;stroke-dasharray:none"
       d="m 271.33026,303.89209 0,-80.24231 80.24232,0 80.24232,0 0,80.24231 0,80.24231 -80.24232,0 -80.24232,0 0,-80.24231 z"
       id="path4829-3-7"
       inkscape:connector-curvature="0" />
    <g
       transform="matrix(1.6718587,0,0,-1.6718587,-216.63575,1027.49)"
       id="g7010"
       style="fill:#000000">
      <g
         id="g5005"
         transform="translate(350.917,573.269)"
         style="fill:#000000">
        <path
           d="m 0,0 c -3.677,1.57 -7.729,2.438 -11.979,2.437 -6.768,0.001 -13.022,-2.204 -18.084,-5.926 l -3.04,4.386 c -0.179,0.258 -0.49,0.38 -0.794,0.312 -0.307,-0.068 -0.539,-0.312 -0.595,-0.621 l -1.753,-10.277 -1.239,-7.25 c -0.039,-0.233 0.025,-0.468 0.185,-0.644 0.146,-0.164 0.356,-0.253 0.572,-0.253 0.015,0 0.033,0.002 0.049,0.002 l 8.13,0.512 9.153,0.579 c 0.306,0.02 0.571,0.219 0.672,0.511 0.106,0.289 0.027,0.612 -0.202,0.819 l -3.813,3.526 c 3.085,2.046 6.777,3.239 10.759,3.241 2.79,0 5.441,-0.593 7.845,-1.649 0.188,-0.083 0.405,-0.087 0.597,-0.007 0.19,0.078 0.345,0.232 0.423,0.426 L 0.413,-0.99 C 0.567,-0.601 0.385,-0.164 0,0"
           style="fill:#000000;fill-opacity:1;fill-rule:nonzero;stroke:none"
           id="path5007"
           inkscape:connector-curvature="0" />
      </g>
      <g
         id="g5009"
         transform="translate(307.7725,542.5405)"
         style="fill:#000000">
        <path
           d="m 0,0 c 0.358,-3.985 1.508,-7.964 3.521,-11.708 3.197,-5.961 8.097,-10.429 13.774,-13.13 l -2.425,-4.751 c -0.146,-0.28 -0.104,-0.614 0.103,-0.849 0.203,-0.237 0.528,-0.327 0.824,-0.228 l 9.885,3.314 6.974,2.338 c 0.222,0.075 0.399,0.245 0.479,0.468 0.076,0.207 0.056,0.433 -0.046,0.624 -0.007,0.014 -0.017,0.028 -0.026,0.041 l -4.296,6.922 -4.842,7.789 c -0.163,0.262 -0.462,0.4 -0.768,0.354 -0.302,-0.046 -0.549,-0.269 -0.626,-0.568 l -1.299,-5.029 c -3.262,1.749 -6.062,4.442 -7.948,7.948 -1.319,2.459 -2.052,5.074 -2.257,7.69 -0.018,0.206 -0.119,0.4 -0.279,0.534 -0.158,0.13 -0.366,0.192 -0.574,0.17 L 0.676,0.831 C 0.262,0.782 -0.037,0.415 0,0"
           style="fill:#000000;fill-opacity:1;fill-rule:nonzero;stroke:none"
           id="path5011"
           inkscape:connector-curvature="0" />
      </g>
      <g
         id="g5013"
         transform="translate(355.4492,520.0767)"
         style="fill:#000000">
        <path
           d="m 0,0 c 3.269,2.302 6.143,5.291 8.376,8.906 3.561,5.752 4.976,12.232 4.478,18.494 l 5.325,0.28 c 0.313,0.015 0.583,0.216 0.683,0.513 0.105,0.295 0.02,0.62 -0.214,0.828 l -7.816,6.9 -5.516,4.869 C 5.14,40.946 4.906,41.011 4.672,40.969 4.456,40.933 4.268,40.803 4.156,40.618 4.146,40.603 4.14,40.589 4.131,40.576 l -3.84,-7.183 -4.324,-8.089 c -0.144,-0.273 -0.114,-0.602 0.079,-0.843 0.191,-0.239 0.507,-0.342 0.804,-0.259 l 5.007,1.391 C 1.974,21.893 1.045,18.123 -1.049,14.737 -2.518,12.364 -4.416,10.42 -6.58,8.933 -6.749,8.816 -6.865,8.632 -6.901,8.427 -6.934,8.224 -6.886,8.011 -6.762,7.845 L -1.059,0.169 C -0.809,-0.166 -0.339,-0.239 0,0"
           style="fill:#000000;fill-opacity:1;fill-rule:nonzero;stroke:none"
           id="path5015"
           inkscape:connector-curvature="0" />
      </g>
    </g>
  </g>
</svg>
